<svg xmlns="http://www.w3.org/2000/svg" xmlns:xlink="http://www.w3.org/1999/xlink" x="0px" y="0px" viewBox="0 0 260.4 356.4" style="enable-background:new 0 0 260.4 356.4;" xml:space="preserve"><style type="text/css">	.st0{fill:#9E50E5;}</style><g id="BACKGROUND"></g><g id="OBJECTS">	<g>		<path class="st0" d="M253.3,109.2C240.7,40.5,175.2-4.7,106.6,8.9c-45.6,9-77.3,36.2-93.8,79.6c-10.7,28.2-11.2,57-0.5,85.7   c7.5,20.3,17.9,39.1,29.2,57.5c21.9,35.6,47.2,68.7,73.7,100.9c4.8,5.8,9.7,11.5,15.2,17.9c1.1-1.5,1.9-2.6,2.8-3.6   c21.6-25.4,42.3-51.4,61.5-78.7c18.1-25.9,35-52.4,48.3-81.2C254.5,162.1,258.2,136.2,253.3,109.2z M113.2,118.1   c-4.1,0-7.7,0-11.5,0v-9.2c5.7-0.4,11.3-0.1,17.1-0.2h5.4V75.9c2.1-0.1,4-0.1,5.8-0.1c1.9,0,3.8,0,5.8,0c0,0,0,0,0,0v32.9h9.8v0   c1.8,0,3.6,0,5.4,0c2.3,0,4.7,0,7.3,0v9.4c-3.8,0-7.3,0-11.2,0c-0.4,7.3,0,14.3-0.3,21.7c-6.6,0.1-13,0-19.5,0.1v0h-4.7v14.6h2.8   c2,0.3,4.1,0,6,0.1c2.6,0.1,5.2,0,7.7,0c2.1,0,4.2,0,6.4,0v12c-2.1,0.3-4.2,0-6.2,0.1c-2.5,0.1-4.9,0-7.4,0c-2.5,0-4.9,0-7.3,0h-2   v14.3h4.7v0c2.6,0.1,5.3,0,7.9,0c3.5,0,6.9,0,10.3,0v12c-6,0-12,0-18.3,0c-1.1,0-2.1,0-3.2,0h-1.4v14.7h3c7,0.1,13.9,0,21.1,0.1   c0.3,3.8,0.1,7.4,0.1,11.3c-3.9,0.6-7.6,0.2-11.2,0.3c-2.7,0.1-5.5,0-8.3,0v0h-4.7v14.8h4.7v0c1.4,0,2.8-0.1,4.1-0.1   c2.5,0.1,4.9,0,7.4,0c2.5,0,4.9,0,7.4,0c1,1.7,0.5,3.4,0.5,5.1c-5.7,3.9-11.4,7.8-17.4,11.9c-5.6-3.9-11-7.8-16.8-12   c0.2-20,0.4-40.1,0.5-60.3C113.2,158.7,113.2,138.7,113.2,118.1z M218.8,177c-10.5,22.6-23.7,43.5-38,63.8   c-12.7,18.1-26.3,35.5-40.4,52.4c0-11.5,0-24.1,0-27.3c7.6-5.2,15.4-10.6,23.5-16.1c0-39.1,0-78.3,0-117.6c3.7-1.1,7.3,0,10.8-0.7   c0.7-2.2,1-32.8,0.3-38.2c-7.2-0.2-14.6,0-21.8-0.1V80c2.3-0.4,4.7-0.1,7-0.1c2.6-0.1,5.1,0,7.7,0c0.7-2.6,0.9-18.3,0.4-25   c-0.1-0.1-0.1-0.1-0.2-0.2c-0.1-0.1-0.2-0.2-0.3-0.2c-0.7-0.1-1.3-0.1-2-0.1c-24.3,0-48.7,0-73,0.1c-0.2,0-0.4,0.2-0.8,0.4   c0,8.1,0,16.4,0,25c5.2,0,10.3,0,15.3,0v13.5c-7.4,0-14.9,0-22.6,0c0,12.9,0,25.4,0,38.3c1.9,0.1,3.7,0.1,5.6,0.2   c1.9,0.1,3.8,0.1,5.9,0.2c0.6,4.2,0.2,8.1,0.3,11.9c0.1,3.9,0,7.9,0,11.8c0,3.9,0,7.9,0,11.8c0,3.9,0,7.9,0,11.8   c0,3.9,0,7.9,0,11.8c0,3.9,0,7.9,0,11.8c0,3.9,0,7.9,0,11.8c0,3.9,0,7.9,0,11.8c0,3.9,0,7.9,0,11.8c0,3.9,0,7.8,0,11.8   c8.1,5.8,15.8,11.4,23.4,16.8c0.3,0.2,0,3.1,0,3.5c0,1.2,0,2.4,0,3.6c0,6.5,0.2,13,0.3,19.6c-0.6-0.7-1.1-1.3-1.7-2   c-20.9-25.3-40.7-51.4-57.9-79.3c-8.9-14.4-17-29.2-22.9-45.2c-8.4-22.5-8-45.2,0.4-67.4C50.9,65.4,75.8,44,111.6,37   c53.9-10.7,105.4,24.9,115.3,78.9C230.8,137,227.9,157.4,218.8,177z"></path>	</g></g></svg>