<svg xmlns="http://www.w3.org/2000/svg" xmlns:xlink="http://www.w3.org/1999/xlink" x="0px" y="0px" viewBox="0 0 797.2 280.9" style="enable-background:new 0 0 797.2 280.9;" xml:space="preserve"><style type="text/css">	.st0{fill:#9E50E5;}</style><g id="BACKGROUND"></g><g id="OBJECTS">	<g>		<path class="st0" d="M198.5,84.9c-10-54.4-61.8-90.2-116.1-79.5C46.3,12.6,21.2,34,8.2,68.5c-8.4,22.3-8.9,45.1-0.4,67.8   c6,16.1,14.2,31,23.1,45.5c17.3,28.1,37.3,54.4,58.3,79.9c3.8,4.6,7.7,9.1,12,14.1c0.9-1.2,1.5-2,2.2-2.9   c17.1-20.1,33.5-40.7,48.7-62.2c14.4-20.5,27.7-41.5,38.3-64.3C199.5,126.7,202.4,106.2,198.5,84.9z M87.6,91.9   c-3.2,0-6.1,0-9.1,0v-7.3c4.5-0.3,9-0.1,13.6-0.2h4.3V58.5c1.7,0,3.1-0.1,4.6-0.1c1.5,0,3,0,4.6,0c0,0,0,0,0,0v26h7.8v0   c1.4,0,2.9,0,4.3,0c1.9,0,3.7,0,5.8,0v7.4c-3,0-5.8,0-8.9,0c-0.3,5.8,0,11.4-0.2,17.2c-5.2,0.1-10.3,0-15.4,0.1v0h-3.7v11.5h2.2   c1.6,0.3,3.2,0,4.8,0.1c2,0.1,4.1,0,6.1,0c1.6,0,3.3,0,5.1,0v9.5c-1.6,0.2-3.3,0-4.9,0.1c-2,0.1-3.9,0-5.9,0c-1.9,0-3.9,0-5.8,0   h-1.6v11.3h3.7v0c2.1,0,4.2,0,6.3,0c2.7,0,5.5,0,8.2,0v9.5c-4.7,0-9.5,0-14.4,0c-0.9,0-1.7,0-2.6,0h-1.1v11.6h2.4   c5.6,0.1,11,0,16.7,0.1c0.2,3,0.1,5.9,0.1,8.9c-3.1,0.5-6,0.2-8.9,0.2c-2.1,0-4.3,0-6.5,0v0h-3.7v11.7h3.7v0   c1.1,0,2.2-0.1,3.3-0.1c2,0.1,3.9,0,5.9,0c1.9,0,3.9,0,5.9,0c0.8,1.4,0.4,2.7,0.4,4.1c-4.5,3.1-9.1,6.2-13.7,9.4   c-4.4-3.1-8.7-6.2-13.3-9.5c0.1-15.8,0.4-31.8,0.4-47.7C87.7,124,87.6,108.2,87.6,91.9z M171.2,138.5   c-8.3,17.9-18.8,34.4-30.1,50.5c-10.1,14.3-20.8,28.1-32,41.5c0-9.1,0-19.1,0-21.6c6-4.1,12.2-8.4,18.6-12.7c0-31,0-61.9,0-93.1   c2.9-0.8,5.8,0,8.6-0.5c0.6-1.7,0.8-26,0.2-30.2c-5.7-0.1-11.5,0-17.2-0.1V61.7c1.8-0.3,3.7,0,5.5-0.1c2-0.1,4.1,0,6.1,0   c0.6-2,0.7-14.5,0.3-19.8c-0.1,0-0.1-0.1-0.2-0.2c-0.1-0.1-0.1-0.1-0.2-0.1c-0.5,0-1.1-0.1-1.6-0.1c-19.3,0-38.5,0-57.8,0.1   c-0.2,0-0.3,0.1-0.6,0.3c0,6.4,0,13,0,19.8c4.1,0,8.2,0,12.1,0v10.7c-5.9,0-11.8,0-17.9,0c0,10.2,0,20.1,0,30.3   c1.5,0,3,0.1,4.4,0.1c1.5,0,3,0.1,4.7,0.1c0.5,3.3,0.2,6.4,0.2,9.4c0.1,3.1,0,6.2,0,9.3c0,3.1,0,6.2,0,9.3c0,3.1,0,6.2,0,9.3   c0,3.1,0,6.2,0,9.3c0,3.1,0,6.2,0,9.3c0,3.1,0,6.2,0,9.3c0,3.1,0,6.2,0,9.3c0,3.1,0,6.2,0,9.3c0,3.1,0,6.2,0,9.3   c6.4,4.6,12.5,9,18.5,13.3c0.2,0.2,0,2.4,0,2.8c0,1,0,1.9,0,2.9c0,5.2,0.2,10.3,0.2,15.5c-0.4-0.5-0.9-1.1-1.3-1.6   c-16.5-20-32.2-40.7-45.9-62.8c-7-11.4-13.5-23.1-18.2-35.8c-6.6-17.8-6.3-35.8,0.3-53.3c10.2-27,29.9-43.9,58.3-49.5   c42.7-8.4,83.4,19.7,91.3,62.4C180.7,106.9,178.4,123,171.2,138.5z"></path>	</g>	<g>		<path class="st0" d="M544.9,177.5c-4.7,0-9.4,0-14,0c-0.4-1.3-0.8-2.6-1.2-3.9c-0.8,0.6-1.6,1.1-2.4,1.5c-3.2,2-6.6,3.3-10.3,3.9   c-2.2,0.4-4.5,0.5-6.8,0.3c-3.1-0.2-6-0.8-8.9-2c-5.1-2.1-8.9-5.5-11.4-10.4c-1.4-2.8-2.3-5.7-2.6-8.8c-0.1-1.5-0.2-3.1-0.2-4.7   c0-2.8,0.5-5.5,1.3-8.1c1.2-4.3,3.1-8.2,5.8-11.7c3.6-4.6,8-8.1,13.4-10.3c2.5-1,5.1-1.8,7.8-2.1c4.6-0.6,9.2-0.5,13.6,1.3   c1.2,0.5,2.4,1.2,3.6,1.7c0.2,0.1,0.4,0.2,0.7,0.3c1-7.2,1.9-14.4,2.9-21.5c0.1-0.1,0.1-0.1,0.1-0.1c0,0,0.1,0,0.1,0   c5.8,0,11.6,0,17.4-0.1c0.3,0,0.5,0,0.8,0c0.1,0,0.1,0.1,0.2,0.1c0,0.2,0,0.5,0,0.7C551.6,128.4,548.3,152.9,544.9,177.5z    M506.4,151.9c0.1,0.8,0.1,1.7,0.3,2.5c0.5,2.6,1.8,4.7,3.9,6.3c2.7,1.9,5.7,2.3,8.8,1.7c3.6-0.6,6.5-2.4,8.7-5.3   c2.6-3.5,3.7-7.4,2.7-11.7c-0.7-3.2-2.6-5.5-5.7-6.9c-1.7-0.8-3.6-1-5.5-0.9c-1.4,0.1-2.7,0.3-4,0.8   C510.3,140.5,506.5,145.9,506.4,151.9z"></path>		<path class="st0" d="M276.5,128c-6.6,0-13.1,0-19.7,0c0-0.7,0.1-1.3,0-1.9c-0.3-2.3-1.7-3.7-3.9-4.3c-2.4-0.6-4.8-0.5-7,0.6   c-1.4,0.7-2.4,1.7-2.9,3.2c-0.5,1.8,0.2,3.3,1.4,4.1c1.1,0.8,2.2,1.4,3.5,1.7c2.7,0.8,5.5,1.6,8.2,2.3c3.3,0.9,6.7,1.9,9.8,3.5   c1.9,1,3.7,2.2,5.2,3.7c2.2,2.2,3.5,4.8,4,7.9c0.4,2.7,0.3,5.4-0.2,8.1c-0.7,3.7-2,7.2-4.2,10.3c-2.1,3-4.9,5.5-8.1,7.3   c-3.7,2.1-7.7,3.4-11.9,4.1c-3.2,0.5-6.3,0.7-9.5,0.5c-4.1-0.2-8.2-0.9-12-2.7c-3.3-1.5-6.1-3.6-8.1-6.7c-1.7-2.5-2.7-5.2-3-8.2   c-0.2-1.5-0.2-3.1-0.2-4.7c0-0.8,0.1-1.5,0.2-2.3c0.1-0.1,0.1-0.1,0.1-0.1c0,0,0.1,0,0.1,0c6.5,0,13.1,0,19.6,0c0.1,0,0.2,0,0.4,0   c0,0.5,0,0.9,0,1.4c0,2.6,1.4,4.7,4,5.5c3.6,1.2,6.9,0.7,10-1.6c1.3-1,2.1-2.3,2.3-3.9c0.2-1.2-0.1-2.3-1-3.1   c-0.6-0.6-1.2-1.1-1.9-1.5c-1.5-0.9-3.2-1.3-4.8-1.8c-3.1-0.8-6.3-1.6-9.4-2.5c-3.1-0.9-6.1-2.1-8.8-4.1c-3.4-2.4-5.4-5.7-5.9-9.8   c-0.8-6.8,0.8-13,5-18.5c1.9-2.4,4.3-4.3,7-5.8c3.4-1.9,7-3,10.8-3.6c3.1-0.5,6.1-0.7,9.2-0.5c4,0.2,7.9,0.8,11.5,2.5   c3.6,1.6,6.5,4.1,8.4,7.7c0.8,1.6,1.4,3.3,1.7,5.1c0.3,1.7,0.4,3.3,0.4,5C276.7,126.1,276.6,127,276.5,128z"></path>		<path class="st0" d="M320.1,148.9c5,9.6,9.9,19,14.9,28.5c-0.7,0.2-20.4,0.2-22.3,0.1c-3.5-7.5-6.9-15.1-10.4-22.7   c-0.1,0-0.1,0-0.2,0c-1,7.6-2,15.1-3.1,22.7c-6.3,0-12.6,0-18.9,0c3.3-24.8,6.7-49.7,10-74.4c1.1-0.2,18.2-0.2,18.9,0   c-1.8,13.5-3.6,27-5.5,40.5c0.1,0.1,0.1,0.1,0.1,0.1c0,0,0.1,0,0.1,0c5.2-6.9,10.3-13.9,15.5-20.9c7.1,0,14.1,0,21.3,0   C333.8,131.5,327,140.1,320.1,148.9z"></path>		<path class="st0" d="M483.2,154.7c-13.5,0-27,0-40.6,0c0.1,0.6,0.1,1.2,0.2,1.7c0.2,1.3,0.6,2.4,1.3,3.6c1.2,2.2,3.2,3.4,5.6,3.9   c3.4,0.7,6.6,0.2,9.6-1.4c1.5-0.8,2.7-2,3.8-3.3c6.2,0,12.5,0,18.8,0c-0.2,0.6-0.4,1.1-0.7,1.6c-1.8,3.5-4.1,6.6-6.9,9.3   c-4.6,4.3-10,7.2-16.1,8.5c-3.3,0.7-6.7,1-10.1,0.7c-5.2-0.4-10.1-1.9-14.4-5.1c-4.4-3.3-7.2-7.8-8.5-13.1c-0.7-2.8-1-5.7-0.7-8.6   c0.6-7.5,3.2-14.2,8.2-20c4.9-5.6,11-9.1,18.2-10.7c3.4-0.8,6.9-0.9,10.4-0.7c3.8,0.3,7.4,1.2,10.8,2.9c5.5,2.9,9.3,7.2,11.4,13.1   c0.8,2.4,1.2,4.9,1.3,7.5C484.6,148.1,484.2,151.3,483.2,154.7z M466.4,144.1c-0.2-0.7-0.3-1.2-0.4-1.8c-0.9-2.8-2.6-4.9-5.5-5.9   c-2.4-0.8-4.8-0.9-7.3-0.3c-2.8,0.6-5,2.1-6.7,4.3c-0.9,1.1-1.6,2.3-2.1,3.7C451.7,144.1,459,144.1,466.4,144.1z"></path>		<path class="st0" d="M414.2,177.5c-6.3,0-12.6,0-18.9,0c1.7-12.5,3.3-24.9,5-37.3c1.7-12.4,3.3-24.8,5-37.1   c0.8-0.2,17.9-0.2,18.9,0c-1.7,12.4-3.3,24.8-5,37.2C417.6,152.7,415.9,165,414.2,177.5z"></path>		<path class="st0" d="M366.7,177.5c0-0.4,0-0.7,0-1c3.3-24.5,6.6-49,9.9-73.5c6.3,0,12.5,0,18.8,0c0,0,0.1,0,0.1,0.1   c0,0,0,0.1,0,0.1c0,0.1,0,0.1,0,0.2c-3.3,24.7-6.7,49.4-10,74.1C379.2,177.5,373,177.5,366.7,177.5z"></path>		<path class="st0" d="M356.8,177.5c-6.3,0-12.6,0-18.9,0c2.5-18.2,4.9-36.4,7.4-54.6c0.7-0.2,16.8-0.3,18.8-0.1c0,0,0.1,0,0.1,0.1   c0,0,0,0.1,0,0.1c0,0.1,0,0.3,0,0.4C361.7,141.4,359.3,159.4,356.8,177.5z"></path>		<path class="st0" d="M585.6,172c11.8-21.8,23.6-43.6,35.5-65.4c1.2,0,2.4,0,3.7,0c-12.9,23.7-25.7,47.3-38.6,70.9   c-1,0-1.9,0-2.9,0c-6.7-23.6-13.5-47.2-20.2-70.8c0.6-0.3,1.3-0.1,1.9-0.1c0.6,0,1.2,0,1.8,0c6.2,21.8,12.5,43.7,18.7,65.5   C585.4,172,585.5,172,585.6,172z"></path>		<path class="st0" d="M750.9,162.6c1.1,0,2.1,0,3.2,0c0,0.4,0.1,0.7,0.1,1.1c0.2,5.1,2.7,8.4,7.4,10.3c2.3,0.9,4.7,1.3,7.2,1.4   c3.1,0.1,6.2-0.1,9.2-1c2.9-0.9,5.6-2.2,7.7-4.5c1.9-2,3.1-4.4,3.4-7.1c0.2-1.8,0.1-3.5-0.6-5.1c-0.8-1.7-2.1-3-3.7-3.9   c-2-1.2-4.3-1.9-6.6-2.3c-3.1-0.6-6.2-1.2-9.4-1.8c-2.6-0.5-5.3-1.1-7.7-2.3c-1.5-0.7-2.9-1.6-3.9-3c-1.2-1.5-1.8-3.3-1.9-5.2   c-0.2-5.5,2-9.8,6.4-13.1c2.8-2.1,6-3.3,9.4-3.9c2.1-0.4,4.2-0.6,6.3-0.5c2.7,0.1,5.4,0.4,8,1.4c2,0.7,3.8,1.8,5.4,3.3   c1.7,1.7,2.8,3.7,3.3,6c0.3,1.5,0.5,3.1,0.3,4.7c-0.5,0-1,0-1.5,0c-0.5,0-1,0-1.7,0c0-0.5,0-1,0-1.5c-0.2-4.7-2.6-7.7-6.8-9.5   c-1.7-0.7-3.5-1.1-5.4-1.2c-1.3-0.1-2.5-0.2-3.8-0.1c-3.1,0.1-6.1,0.7-8.9,2c-2.9,1.4-5.3,3.3-6.6,6.3c-0.9,2.1-1.3,4.2-0.8,6.4   c0.3,1.5,1.1,2.8,2.4,3.8c1.7,1.3,3.6,2,5.6,2.5c2.6,0.6,5.3,1.1,8,1.6c3.4,0.6,6.8,1.2,10.1,2.5c1.8,0.7,3.4,1.7,4.8,3.1   c1.5,1.5,2.4,3.3,2.7,5.4c0.7,5.3-0.8,9.9-4.5,13.8c-2.5,2.6-5.7,4.2-9.1,5.2c-2.3,0.7-4.7,1.1-7.2,1.2c-3.2,0.2-6.3,0-9.4-0.8   c-2.8-0.7-5.4-2-7.5-4.1c-2-2-3.1-4.5-3.6-7.3C750.9,165.1,750.8,163.9,750.9,162.6z"></path>		<path class="st0" d="M687.2,137c-1.2,0-2.1,0-3.2,0c0-0.5,0-1,0-1.5c-0.1-3.1-1.3-5.8-3.8-7.8c-1.4-1.1-2.9-1.8-4.5-2.2   c-2.9-0.8-5.8-1-8.8-0.7c-2.5,0.2-4.9,0.7-7.2,1.6c-2.4,1-4.6,2.5-6.2,4.6c-1.8,2.4-2.5,5.1-2.1,8.1c0.2,1.8,1.3,3.2,2.7,4.3   c1.4,1,3,1.6,4.7,2.1c2.5,0.7,5.1,1.2,7.7,1.6c3.4,0.6,6.8,1.1,10,2.3c1.9,0.7,3.7,1.6,5.2,2.9c1.6,1.4,2.7,3.2,3.1,5.2   c0.9,4.8-0.1,9.1-3.1,13c-2.4,3.1-5.6,5-9.2,6.3c-2.7,1-5.5,1.5-8.4,1.6c-0.9,0-1.7,0.1-2.6,0.1c-3.2-0.1-6.3-0.5-9.2-1.7   c-3.2-1.3-5.7-3.3-7.3-6.4c-0.9-1.7-1.4-3.5-1.5-5.5c0-0.8-0.2-1.6,0-2.5c1-0.1,2-0.1,3.1-0.1c0.1,0.7,0.1,1.4,0.2,2   c0.4,4.1,2.5,7,6.1,8.9c1.8,0.9,3.8,1.4,5.8,1.7c2.2,0.3,4.4,0.3,6.6,0.1c3.9-0.3,7.6-1.3,10.8-3.6c3-2.1,5-4.9,5.5-8.6   c0.4-2.5,0.2-4.9-1.5-7c-0.8-1.1-1.9-1.9-3.1-2.5c-1.9-1.1-4-1.7-6.1-2.1c-2.5-0.5-5-0.9-7.4-1.4c-2.7-0.5-5.3-1-7.9-1.9   c-1.4-0.5-2.8-1.2-4-2.1c-2.4-1.8-3.5-4.1-3.6-7.1c-0.1-3.1,0.6-6,2.3-8.6c1.4-2.2,3.4-3.9,5.6-5.3c2.9-1.7,6-2.7,9.3-3.1   c1.6-0.2,3.2-0.3,4.7-0.3c3.1,0.1,6.1,0.5,9,1.7c2.9,1.3,5.3,3.2,6.7,6.1c0.8,1.6,1.2,3.2,1.3,4.9   C687.1,135.2,687.2,136,687.2,137z"></path>		<path class="st0" d="M727.8,125.8c-4.2,0-8.3,0-12.5,0c0-0.4,0-0.6,0-0.9c0.1-0.7,0.2-1.3,0.3-2.1c1.1-0.1,2.1,0,3.1,0   c1.1,0,2.1,0,3.2,0c1,0,2.1,0,3.1,0c1,0,2.1,0,3.2,0c0.7-5.4,1.5-10.8,2.2-16.2c1.1,0,2.1,0,3.2,0c-0.2,2.7-0.7,5.4-1,8   c-0.3,2.7-0.7,5.3-1.1,8.1c0.4,0,0.7,0,1.1,0c5.9,0,11.8,0,17.6,0c0.3,0,0.7,0,1.1,0c0,1.1-0.2,2-0.4,3c-6.6,0-13.2,0-19.8,0   c-0.2,1.1-0.3,2.1-0.5,3.1c-0.3,2.3-0.6,4.6-0.9,6.8c-0.2,1.6-0.4,3.3-0.6,4.9c-0.2,1.7-0.5,3.5-0.7,5.2c-0.2,1.7-0.4,3.3-0.7,5   c-0.2,1.7-0.5,3.4-0.7,5.1c-0.3,2.4-0.6,4.8-0.8,7.2c-0.1,1.5,0.1,2.9,0.6,4.3c1,3.3,3.3,5.3,6.5,6.3c1.5,0.4,3,0.6,4.6,0.6   c2,0,4,0,5.9,0c0.3,0,0.6,0,1.1,0c-0.1,1.1-0.3,2-0.4,3.1c-0.2,0-0.4,0.1-0.6,0.1c-2.7,0-5.4,0-8.1,0c-2.6-0.1-5-0.7-7.2-2   c-2.9-1.7-4.6-4.3-5.3-7.6c-0.5-2.1-0.5-4.2-0.2-6.4c0.4-3.2,0.8-6.4,1.2-9.6c0.4-3.1,0.9-6.2,1.3-9.2c0.3-2.1,0.6-4.3,0.8-6.5   c0.3-2.2,0.6-4.4,0.9-6.5c0.1-1.1,0.3-2.1,0.4-3.2C727.9,126.3,727.8,126.1,727.8,125.8z"></path>		<path class="st0" d="M346.3,115.9c0.7-5.3,1.4-10.6,2.1-15.8c0.8-0.2,17.2-0.2,18.6,0c-0.2,2.7-0.7,5.3-1,7.9   c-0.3,2.6-0.7,5.3-1.1,7.9C358.8,115.9,352.7,115.9,346.3,115.9z"></path>		<path class="st0" d="M632.8,122.8c1.1,0,2.2,0,3.3,0c-2.5,18.2-4.9,36.4-7.4,54.7c-1.1,0-2.2,0-3.3,0   C627.9,159.2,630.4,141,632.8,122.8z"></path>		<path class="st0" d="M699.3,177.5c-1.1,0-2.2,0-3.3,0c2.5-18.2,4.9-36.4,7.4-54.7c1.1,0,2.1,0,3.3,0   C704.2,141.1,701.7,159.2,699.3,177.5z"></path>		<path class="st0" d="M634.5,104.9c1.7,0,3.2,0,4.8,0c-0.3,1.9-0.5,3.8-0.8,5.7c-1.7,0-3.2,0-4.8,0   C634,108.7,634.2,106.9,634.5,104.9z"></path>		<path class="st0" d="M704.2,110.7c0.3-2,0.4-3.9,0.8-5.7c1.6,0,3.1,0,4.7,0c-0.1,1.9-0.5,3.7-0.7,5.6c-0.8,0.2-1.6,0.1-2.3,0.1   C705.9,110.7,705.2,110.7,704.2,110.7z"></path>	</g></g></svg>